<svg width="30" height="31" viewBox="0 0 30 31" fill="none" xmlns="http://www.w3.org/2000/svg">
<path d="M15.0008 0C6.71284 0 2.46764e-06 7.10287 2.46764e-06 15.8723C-0.00180371 19.2042 0.987949 22.4521 2.82886 25.1552C4.66977 27.8583 7.26836 29.8795 10.256 30.932C11.0061 31.0701 11.2881 30.5939 11.2881 30.1765C11.2881 29.8003 11.2686 28.5512 11.2686 27.2211C7.50038 27.956 6.52533 26.2497 6.22531 25.3561C6.0558 24.8989 5.32527 23.4911 4.68774 23.1133C4.16271 22.8165 3.41267 22.0816 4.66824 22.0626C5.85029 22.0419 6.69334 23.2133 6.97535 23.6895C8.32542 26.0894 10.481 25.4148 11.3436 24.9989C11.4756 23.9672 11.8686 23.2736 12.3006 22.8768C8.96295 22.48 5.47528 21.1102 5.47528 15.039C5.47528 13.3121 6.0558 11.8852 7.01285 10.7726C6.86284 10.3758 6.33782 8.74884 7.16286 6.56639C7.16286 6.56639 8.41842 6.15053 11.2881 8.19489C12.5092 7.83627 13.7709 7.65578 15.0383 7.65841C16.3133 7.65841 17.5884 7.83618 18.7884 8.1933C21.6581 6.1299 22.9136 6.56798 22.9136 6.56798C23.7387 8.75042 23.2137 10.3773 23.0637 10.7741C24.0192 11.8852 24.6012 13.2931 24.6012 15.039C24.6012 21.1309 21.0956 22.48 17.7564 22.8768C18.3009 23.372 18.7704 24.3244 18.7704 25.8132C18.7704 27.9353 18.7509 29.6416 18.7509 30.1781C18.7509 30.5939 19.033 31.0892 19.783 30.9304C22.7604 29.8664 25.3475 27.8413 27.1803 25.1401C29.0131 22.4389 29.9993 19.1976 30 15.8723C30 7.10287 23.2872 0 14.9993 0H15.0008Z" fill="#666666"/>
</svg>
