<svg width="30" height="31" viewBox="0 0 30 31" fill="none" xmlns="http://www.w3.org/2000/svg">
<path d="M8.7 0H21.3C26.1 0 30 4.0249 30 8.97863V21.9822C30 24.3634 29.0834 26.6472 27.4518 28.331C25.8203 30.0148 23.6074 30.9608 21.3 30.9608H8.7C3.9 30.9608 0 26.9359 0 21.9822V8.97863C0 6.59735 0.916605 4.3136 2.54817 2.62978C4.17974 0.94596 6.39262 0 8.7 0ZM8.4 3.09608C6.96783 3.09608 5.59432 3.68323 4.58162 4.72836C3.56893 5.77349 3 7.19099 3 8.66902V22.2918C3 25.3724 5.415 27.8647 8.4 27.8647H21.6C23.0322 27.8647 24.4057 27.2776 25.4184 26.2324C26.4311 25.1873 27 23.7698 27 22.2918V8.66902C27 5.58842 24.585 3.09608 21.6 3.09608H8.4ZM22.875 5.41814C23.3723 5.41814 23.8492 5.62201 24.2008 5.9849C24.5525 6.34779 24.75 6.83998 24.75 7.35319C24.75 7.8664 24.5525 8.35858 24.2008 8.72148C23.8492 9.08437 23.3723 9.28824 22.875 9.28824C22.3777 9.28824 21.9008 9.08437 21.5492 8.72148C21.1975 8.35858 21 7.8664 21 7.35319C21 6.83998 21.1975 6.34779 21.5492 5.9849C21.9008 5.62201 22.3777 5.41814 22.875 5.41814ZM15 7.7402C16.9891 7.7402 18.8968 8.55568 20.3033 10.0072C21.7098 11.4588 22.5 13.4276 22.5 15.4804C22.5 17.5332 21.7098 19.502 20.3033 20.9535C18.8968 22.4051 16.9891 23.2206 15 23.2206C13.0109 23.2206 11.1032 22.4051 9.6967 20.9535C8.29018 19.502 7.5 17.5332 7.5 15.4804C7.5 13.4276 8.29018 11.4588 9.6967 10.0072C11.1032 8.55568 13.0109 7.7402 15 7.7402ZM15 10.8363C13.8065 10.8363 12.6619 11.3256 11.818 12.1965C10.9741 13.0674 10.5 14.2487 10.5 15.4804C10.5 16.7121 10.9741 17.8933 11.818 18.7643C12.6619 19.6352 13.8065 20.1245 15 20.1245C16.1935 20.1245 17.3381 19.6352 18.182 18.7643C19.0259 17.8933 19.5 16.7121 19.5 15.4804C19.5 14.2487 19.0259 13.0674 18.182 12.1965C17.3381 11.3256 16.1935 10.8363 15 10.8363Z" fill="#666666"/>
</svg>
