<svg width="30" height="31" viewBox="0 0 30 31" fill="none" xmlns="http://www.w3.org/2000/svg">
<path d="M26.6667 0C27.5507 0 28.3986 0.362437 29.0237 1.00758C29.6488 1.65272 30 2.52772 30 3.44009V27.5207C30 28.4331 29.6488 29.3081 29.0237 29.9532C28.3986 30.5984 27.5507 30.9608 26.6667 30.9608H3.33333C2.44928 30.9608 1.60143 30.5984 0.976311 29.9532C0.351189 29.3081 0 28.4331 0 27.5207V3.44009C0 2.52772 0.351189 1.65272 0.976311 1.00758C1.60143 0.362437 2.44928 0 3.33333 0H26.6667ZM25.8333 26.6607V17.5445C25.8333 16.0573 25.2609 14.631 24.2419 13.5795C23.223 12.5279 21.841 11.9371 20.4 11.9371C18.9833 11.9371 17.3333 12.8315 16.5333 14.1732V12.2639H11.8833V26.6607H16.5333V18.1809C16.5333 16.8564 17.5667 15.7728 18.85 15.7728C19.4688 15.7728 20.0623 16.0265 20.4999 16.4781C20.9375 16.9297 21.1833 17.5422 21.1833 18.1809V26.6607H25.8333ZM6.46667 9.56345C7.20927 9.56345 7.92146 9.259 8.44657 8.71708C8.97167 8.17516 9.26667 7.44016 9.26667 6.67377C9.26667 5.07413 8.01667 3.7669 6.46667 3.7669C5.71964 3.7669 5.00321 4.07316 4.47498 4.6183C3.94675 5.16344 3.65 5.90282 3.65 6.67377C3.65 8.27341 4.91667 9.56345 6.46667 9.56345ZM8.78333 26.6607V12.2639H4.16667V26.6607H8.78333Z" fill="#666666"/>
</svg>
