<svg xmlns="http://www.w3.org/2000/svg" xmlns:xlink="http://www.w3.org/1999/xlink" width="637" zoomAndPan="magnify" viewBox="0 0 477.75 374.999991" height="500" preserveAspectRatio="xMidYMid meet" version="1.0"><defs><g/><clipPath id="b012cd90df"><path d="M 412 247 L 477.5 247 L 477.5 325 L 412 325 Z M 412 247 " clip-rule="nonzero"/></clipPath></defs><g fill="#000000" fill-opacity="1"><g transform="translate(94.344341, 19.352023)"><g><path d="M 136.6875 19.953125 C 177.257812 19.953125 216.421875 25.851562 254.171875 37.65625 C 291.921875 49.46875 325.929688 68.015625 356.203125 93.296875 L 356.203125 134.703125 C 324.929688 111.421875 290.503906 93.875 252.921875 82.0625 C 215.347656 70.257812 176.769531 64.359375 137.1875 64.359375 C 98.613281 64.359375 60.785156 70.257812 23.703125 82.0625 C -13.378906 93.875 -47.554688 111.253906 -78.828125 134.203125 L -78.828125 93.296875 C -49.554688 68.015625 -16.378906 49.46875 20.703125 37.65625 C 57.785156 25.851562 96.445312 19.953125 136.6875 19.953125 Z M 136.6875 19.953125 "/></g></g></g><g fill="#000000" fill-opacity="1"><g transform="translate(133.643126, 100.064361)"><g><path d="M 100.03125 14.609375 C 129.71875 14.609375 158.375 18.925781 186 27.5625 C 213.625 36.195312 238.507812 49.765625 260.65625 68.265625 L 260.65625 98.5625 C 237.78125 81.53125 212.585938 68.691406 185.078125 60.046875 C 157.578125 51.410156 129.347656 47.09375 100.390625 47.09375 C 72.160156 47.09375 44.476562 51.410156 17.34375 60.046875 C -9.789062 68.691406 -34.800781 81.410156 -57.6875 98.203125 L -57.6875 68.265625 C -36.257812 49.765625 -11.976562 36.195312 15.15625 27.5625 C 42.289062 18.925781 70.582031 14.609375 100.03125 14.609375 Z M 100.03125 14.609375 "/></g></g></g><g fill="#000000" fill-opacity="1"><g transform="translate(0.890159, 323.262874)"><g><path d="M 5.53125 0 L 5.53125 -1.40625 C 7.195312 -1.914062 8.335938 -3 8.953125 -4.65625 C 9.566406 -6.320312 9.875 -9.363281 9.875 -13.78125 L 9.875 -62.171875 C 9.875 -66.648438 9.566406 -69.703125 8.953125 -71.328125 C 8.335938 -72.960938 7.195312 -74.035156 5.53125 -74.546875 L 5.53125 -75.953125 L 23.109375 -75.953125 L 23.109375 -74.546875 C 21.441406 -74.035156 20.300781 -72.960938 19.6875 -71.328125 C 19.070312 -69.703125 18.765625 -66.648438 18.765625 -62.171875 L 18.765625 -41.125 L 60.109375 -41.125 L 60.109375 -62.171875 C 60.109375 -66.648438 59.800781 -69.703125 59.1875 -71.328125 C 58.570312 -72.960938 57.429688 -74.035156 55.765625 -74.546875 L 55.765625 -75.953125 L 73.34375 -75.953125 L 73.34375 -74.546875 C 71.675781 -74.035156 70.535156 -72.960938 69.921875 -71.328125 C 69.304688 -69.703125 69 -66.648438 69 -62.171875 L 69 -13.78125 C 69 -9.363281 69.304688 -6.320312 69.921875 -4.65625 C 70.535156 -3 71.675781 -1.914062 73.34375 -1.40625 L 73.34375 0 L 55.765625 0 L 55.765625 -1.40625 C 57.429688 -1.914062 58.570312 -3 59.1875 -4.65625 C 59.800781 -6.320312 60.109375 -9.363281 60.109375 -13.78125 L 60.109375 -39.390625 L 18.765625 -39.390625 L 18.765625 -13.78125 C 18.765625 -9.363281 19.070312 -6.320312 19.6875 -4.65625 C 20.300781 -3 21.441406 -1.914062 23.109375 -1.40625 L 23.109375 0 Z M 5.53125 0 "/></g></g></g><g fill="#000000" fill-opacity="1"><g transform="translate(79.665379, 323.262874)"><g><path d="M 44.265625 1.078125 C 39.640625 1.078125 35.046875 0.300781 30.484375 -1.25 C 25.929688 -2.800781 21.773438 -5.1875 18.015625 -8.40625 C 14.253906 -11.625 11.25 -15.691406 9 -20.609375 C 6.757812 -25.535156 5.640625 -31.359375 5.640625 -38.078125 C 5.640625 -45.535156 7.265625 -52.175781 10.515625 -58 C 13.773438 -63.820312 18.296875 -68.410156 24.078125 -71.765625 C 29.867188 -75.128906 36.597656 -76.8125 44.265625 -76.8125 C 48.828125 -76.8125 53.382812 -76.015625 57.9375 -74.421875 C 62.5 -72.835938 66.640625 -70.4375 70.359375 -67.21875 C 74.085938 -64 77.070312 -59.925781 79.3125 -55 C 81.550781 -50.082031 82.671875 -44.300781 82.671875 -37.65625 C 82.671875 -30.925781 81.550781 -25.132812 79.3125 -20.28125 C 77.070312 -15.4375 74.070312 -11.421875 70.3125 -8.234375 C 66.550781 -5.054688 62.410156 -2.707031 57.890625 -1.1875 C 53.367188 0.320312 48.828125 1.078125 44.265625 1.078125 Z M 14.328125 -44.375 C 14.535156 -38.945312 15.523438 -33.679688 17.296875 -28.578125 C 19.078125 -23.484375 21.503906 -18.910156 24.578125 -14.859375 C 27.648438 -10.804688 31.25 -7.585938 35.375 -5.203125 C 39.5 -2.816406 43.984375 -1.625 48.828125 -1.625 C 54.609375 -1.625 59.414062 -2.890625 63.25 -5.421875 C 67.082031 -7.953125 69.921875 -11.40625 71.765625 -15.78125 C 73.617188 -20.15625 74.4375 -25.054688 74.21875 -30.484375 C 74 -36.128906 73.003906 -41.570312 71.234375 -46.8125 C 69.460938 -52.0625 67.054688 -56.742188 64.015625 -60.859375 C 60.972656 -64.984375 57.390625 -68.257812 53.265625 -70.6875 C 49.148438 -73.113281 44.664062 -74.328125 39.8125 -74.328125 C 34.320312 -74.328125 29.640625 -73.0625 25.765625 -70.53125 C 21.898438 -68 18.972656 -64.488281 16.984375 -60 C 14.992188 -55.519531 14.109375 -50.3125 14.328125 -44.375 Z M 14.328125 -44.375 "/></g></g></g><g fill="#000000" fill-opacity="1"><g transform="translate(167.880592, 323.262874)"><g><path d="M 60.765625 0.765625 C 58.015625 0.765625 55.84375 0.0976562 54.25 -1.234375 C 52.65625 -2.578125 51.257812 -4.53125 50.0625 -7.09375 C 48.875 -9.664062 47.484375 -12.832031 45.890625 -16.59375 C 44.304688 -20.363281 42.96875 -23.65625 41.875 -26.46875 C 40.789062 -29.289062 39.613281 -31.640625 38.34375 -33.515625 C 37.082031 -35.398438 35.472656 -36.8125 33.515625 -37.75 C 31.566406 -38.695312 28.96875 -39.171875 25.71875 -39.171875 L 18.765625 -39.171875 L 18.765625 -13.78125 C 18.765625 -9.363281 19.070312 -6.320312 19.6875 -4.65625 C 20.300781 -3 21.441406 -1.914062 23.109375 -1.40625 L 23.109375 0 L 5.53125 0 L 5.53125 -1.40625 C 7.195312 -1.914062 8.335938 -3 8.953125 -4.65625 C 9.566406 -6.320312 9.875 -9.363281 9.875 -13.78125 L 9.875 -62.171875 C 9.875 -66.648438 9.566406 -69.703125 8.953125 -71.328125 C 8.335938 -72.960938 7.195312 -74.035156 5.53125 -74.546875 L 5.53125 -75.953125 L 26.90625 -75.953125 C 34.28125 -75.953125 40.03125 -75.207031 44.15625 -73.71875 C 48.28125 -72.238281 51.191406 -70.234375 52.890625 -67.703125 C 54.585938 -65.171875 55.4375 -62.28125 55.4375 -59.03125 C 55.4375 -53.957031 53.628906 -49.628906 50.015625 -46.046875 C 46.398438 -42.472656 41.046875 -40.289062 33.953125 -39.5 C 37.285156 -39.0625 40 -38.316406 42.09375 -37.265625 C 44.195312 -36.222656 45.9375 -34.8125 47.3125 -33.03125 C 48.6875 -31.257812 49.914062 -29.109375 51 -26.578125 C 52.082031 -24.046875 53.273438 -21.117188 54.578125 -17.796875 C 56.304688 -13.453125 57.769531 -10.085938 58.96875 -7.703125 C 60.164062 -5.316406 61.269531 -3.632812 62.28125 -2.65625 C 63.289062 -1.675781 64.410156 -1.1875 65.640625 -1.1875 C 66.003906 -1.1875 66.3125 -1.1875 66.5625 -1.1875 C 66.8125 -1.1875 67.082031 -1.222656 67.375 -1.296875 L 67.375 0 C 66.582031 0.289062 65.550781 0.488281 64.28125 0.59375 C 63.019531 0.707031 61.847656 0.765625 60.765625 0.765625 Z M 18.765625 -40.796875 L 27.890625 -40.796875 C 34.109375 -40.796875 38.71875 -42.257812 41.71875 -45.1875 C 44.71875 -48.113281 46.21875 -51.894531 46.21875 -56.53125 C 46.21875 -59.78125 45.472656 -62.742188 43.984375 -65.421875 C 42.503906 -68.097656 40.117188 -70.25 36.828125 -71.875 C 33.546875 -73.507812 29.226562 -74.328125 23.875 -74.328125 C 23.070312 -74.328125 22.238281 -74.304688 21.375 -74.265625 C 20.507812 -74.234375 19.640625 -74.179688 18.765625 -74.109375 Z M 18.765625 -40.796875 "/></g></g></g><g fill="#000000" fill-opacity="1"><g transform="translate(234.286129, 323.262874)"><g><path d="M 5.53125 0 L 5.53125 -1.40625 C 7.195312 -1.914062 8.335938 -3 8.953125 -4.65625 C 9.566406 -6.320312 9.875 -9.363281 9.875 -13.78125 L 9.875 -62.171875 C 9.875 -66.648438 9.566406 -69.703125 8.953125 -71.328125 C 8.335938 -72.960938 7.195312 -74.035156 5.53125 -74.546875 L 5.53125 -75.953125 L 23.109375 -75.953125 L 23.109375 -74.546875 C 21.441406 -74.035156 20.300781 -72.960938 19.6875 -71.328125 C 19.070312 -69.703125 18.765625 -66.648438 18.765625 -62.171875 L 18.765625 -13.78125 C 18.765625 -9.363281 19.070312 -6.320312 19.6875 -4.65625 C 20.300781 -3 21.441406 -1.914062 23.109375 -1.40625 L 23.109375 0 Z M 5.53125 0 "/></g></g></g><g fill="#000000" fill-opacity="1"><g transform="translate(262.931675, 323.262874)"><g><path d="M 2.28125 0 L 2.28125 -1.40625 L 44.046875 -74.21875 L 25.28125 -74.21875 C 19.78125 -74.21875 15.582031 -73.222656 12.6875 -71.234375 C 9.800781 -69.242188 7.378906 -65.753906 5.421875 -60.765625 L 4.234375 -60.765625 L 5.96875 -75.953125 L 54.359375 -75.953125 L 54.359375 -74.546875 L 12.265625 -1.734375 L 31.796875 -1.734375 C 36.273438 -1.734375 39.867188 -2.1875 42.578125 -3.09375 C 45.296875 -4 47.503906 -5.515625 49.203125 -7.640625 C 50.898438 -9.773438 52.472656 -12.65625 53.921875 -16.28125 L 55.015625 -16.28125 L 53.0625 0 Z M 2.28125 0 "/></g></g></g><g fill="#000000" fill-opacity="1"><g transform="translate(320.222746, 323.262874)"><g><path d="M 44.265625 1.078125 C 39.640625 1.078125 35.046875 0.300781 30.484375 -1.25 C 25.929688 -2.800781 21.773438 -5.1875 18.015625 -8.40625 C 14.253906 -11.625 11.25 -15.691406 9 -20.609375 C 6.757812 -25.535156 5.640625 -31.359375 5.640625 -38.078125 C 5.640625 -45.535156 7.265625 -52.175781 10.515625 -58 C 13.773438 -63.820312 18.296875 -68.410156 24.078125 -71.765625 C 29.867188 -75.128906 36.597656 -76.8125 44.265625 -76.8125 C 48.828125 -76.8125 53.382812 -76.015625 57.9375 -74.421875 C 62.5 -72.835938 66.640625 -70.4375 70.359375 -67.21875 C 74.085938 -64 77.070312 -59.925781 79.3125 -55 C 81.550781 -50.082031 82.671875 -44.300781 82.671875 -37.65625 C 82.671875 -30.925781 81.550781 -25.132812 79.3125 -20.28125 C 77.070312 -15.4375 74.070312 -11.421875 70.3125 -8.234375 C 66.550781 -5.054688 62.410156 -2.707031 57.890625 -1.1875 C 53.367188 0.320312 48.828125 1.078125 44.265625 1.078125 Z M 14.328125 -44.375 C 14.535156 -38.945312 15.523438 -33.679688 17.296875 -28.578125 C 19.078125 -23.484375 21.503906 -18.910156 24.578125 -14.859375 C 27.648438 -10.804688 31.25 -7.585938 35.375 -5.203125 C 39.5 -2.816406 43.984375 -1.625 48.828125 -1.625 C 54.609375 -1.625 59.414062 -2.890625 63.25 -5.421875 C 67.082031 -7.953125 69.921875 -11.40625 71.765625 -15.78125 C 73.617188 -20.15625 74.4375 -25.054688 74.21875 -30.484375 C 74 -36.128906 73.003906 -41.570312 71.234375 -46.8125 C 69.460938 -52.0625 67.054688 -56.742188 64.015625 -60.859375 C 60.972656 -64.984375 57.390625 -68.257812 53.265625 -70.6875 C 49.148438 -73.113281 44.664062 -74.328125 39.8125 -74.328125 C 34.320312 -74.328125 29.640625 -73.0625 25.765625 -70.53125 C 21.898438 -68 18.972656 -64.488281 16.984375 -60 C 14.992188 -55.519531 14.109375 -50.3125 14.328125 -44.375 Z M 14.328125 -44.375 "/></g></g></g><g clip-path="url(#b012cd90df)"><g fill="#000000" fill-opacity="1"><g transform="translate(408.437971, 323.262874)"><g><path d="M 62.828125 0.875 L 11.71875 -65.640625 L 11.71875 -18.125 C 11.71875 -14 12.003906 -10.8125 12.578125 -8.5625 C 13.160156 -6.320312 14.007812 -4.675781 15.125 -3.625 C 16.25 -2.582031 17.609375 -1.84375 19.203125 -1.40625 L 19.203125 0 L 5.640625 0 L 5.640625 -1.40625 C 7.304688 -1.914062 8.445312 -3 9.0625 -4.65625 C 9.675781 -6.320312 9.984375 -9.363281 9.984375 -13.78125 L 9.984375 -62.171875 C 9.984375 -66.648438 9.582031 -69.703125 8.78125 -71.328125 C 7.988281 -72.960938 6.507812 -74.035156 4.34375 -74.546875 L 4.34375 -75.953125 L 14.96875 -75.953125 L 62.390625 -14.53125 L 62.390625 -57.828125 C 62.390625 -61.953125 62.097656 -65.148438 61.515625 -67.421875 C 60.941406 -69.703125 60.109375 -71.347656 59.015625 -72.359375 C 57.929688 -73.378906 56.5625 -74.109375 54.90625 -74.546875 L 54.90625 -75.953125 L 68.578125 -75.953125 L 68.578125 -74.546875 C 66.910156 -74.035156 65.769531 -72.960938 65.15625 -71.328125 C 64.539062 -69.703125 64.234375 -66.648438 64.234375 -62.171875 L 64.234375 0.875 Z M 62.828125 0.875 "/></g></g></g></g></svg>